<mxfile host="app.diagrams.net" agent="Mozilla/5.0 (Windows NT 10.0; Win64; x64) AppleWebKit/537.36 (KHTML, like Gecko) Chrome/136.0.0.0 Safari/537.36" version="27.0.6">
  <diagram name="Page-1" id="pyWUfLzprs8-RjYu1XeS">
    <mxGraphModel dx="683" dy="772" grid="1" gridSize="10" guides="1" tooltips="1" connect="1" arrows="1" fold="1" page="1" pageScale="1" pageWidth="850" pageHeight="1100" math="0" shadow="0">
      <root>
        <mxCell id="0" />
        <mxCell id="1" parent="0" />
        <mxCell id="pqe-dq7FHGTc8bpuQqQO-1" value="&lt;h1 style=&quot;margin-top: 0px;&quot;&gt;Geostatistics Flowchart for Marine Acoustic Data&lt;/h1&gt;" style="text;html=1;whiteSpace=wrap;overflow=hidden;rounded=0;" parent="1" vertex="1">
          <mxGeometry x="300" y="10" width="290" height="60" as="geometry" />
        </mxCell>
        <mxCell id="LkquOEXud1LDpQ07gLJA-3" value="" style="edgeStyle=none;curved=1;rounded=0;orthogonalLoop=1;jettySize=auto;html=1;fontSize=12;startSize=8;endSize=8;" edge="1" parent="1" source="LkquOEXud1LDpQ07gLJA-1" target="LkquOEXud1LDpQ07gLJA-2">
          <mxGeometry relative="1" as="geometry" />
        </mxCell>
        <mxCell id="LkquOEXud1LDpQ07gLJA-1" value="Data Availability and Initial Preparation" style="ellipse;whiteSpace=wrap;html=1;" vertex="1" parent="1">
          <mxGeometry x="100" y="100" width="100" height="70" as="geometry" />
        </mxCell>
        <mxCell id="LkquOEXud1LDpQ07gLJA-6" value="" style="edgeStyle=none;curved=1;rounded=0;orthogonalLoop=1;jettySize=auto;html=1;fontSize=12;startSize=8;endSize=8;" edge="1" parent="1" source="LkquOEXud1LDpQ07gLJA-2" target="LkquOEXud1LDpQ07gLJA-5">
          <mxGeometry relative="1" as="geometry" />
        </mxCell>
        <mxCell id="LkquOEXud1LDpQ07gLJA-2" value="coordinat standardization,NASC/sA,catch data" style="whiteSpace=wrap;html=1;" vertex="1" parent="1">
          <mxGeometry x="235" y="115" width="190" height="40" as="geometry" />
        </mxCell>
        <mxCell id="LkquOEXud1LDpQ07gLJA-9" value="" style="edgeStyle=none;curved=1;rounded=0;orthogonalLoop=1;jettySize=auto;html=1;fontSize=12;startSize=8;endSize=8;" edge="1" parent="1" source="LkquOEXud1LDpQ07gLJA-5" target="LkquOEXud1LDpQ07gLJA-7">
          <mxGeometry relative="1" as="geometry" />
        </mxCell>
        <mxCell id="LkquOEXud1LDpQ07gLJA-5" value="Exploratory Data Analysis (EDA)" style="ellipse;whiteSpace=wrap;html=1;" vertex="1" parent="1">
          <mxGeometry x="470" y="100" width="100" height="70" as="geometry" />
        </mxCell>
        <mxCell id="LkquOEXud1LDpQ07gLJA-7" value="coordinat standardization,NASC/sA,catch data" style="whiteSpace=wrap;html=1;" vertex="1" parent="1">
          <mxGeometry x="610" y="115" width="190" height="40" as="geometry" />
        </mxCell>
      </root>
    </mxGraphModel>
  </diagram>
</mxfile>
